<svg width="50" height="50" viewBox="0 0 50 50" fill="none" xmlns="http://www.w3.org/2000/svg">
<path d="M7.58329 20.6907C8.62938 15.9085 12.8641 12.5 17.7593 12.5H32.2407C37.1359 12.5 41.3706 15.9085 42.4167 20.6907L45.1511 33.1907C46.5721 39.6869 41.6249 45.8333 34.975 45.8333H15.025C8.37506 45.8333 3.42786 39.6869 4.84892 33.1907L7.58329 20.6907Z" fill="#003A04" fill-opacity="0.55"/>
<path fill-rule="evenodd" clip-rule="evenodd" d="M14.7384 12.7827C15.5914 7.88788 19.8611 4.16666 25 4.16666C30.1389 4.16666 34.4087 7.88789 35.2616 12.7827C39.0981 13.6959 42.1763 16.7409 43.032 20.7341L45.7105 33.2341C47.1001 39.7186 42.1568 45.8333 35.5251 45.8333H14.4749C7.84318 45.8333 2.89992 39.7186 4.28945 33.2341L6.96802 20.7341C7.8237 16.7409 10.9019 13.6959 14.7384 12.7827ZM19.1056 12.5H30.8944C30.0364 10.0725 27.7213 8.33332 25 8.33332C22.2787 8.33332 19.9636 10.0725 19.1056 12.5ZM17.1535 16.6667C14.2064 16.6667 11.6597 18.7254 11.0422 21.6071L8.36363 34.1071C7.52991 37.9978 10.4959 41.6667 14.4749 41.6667H35.5251C39.5041 41.6667 42.4701 37.9978 41.6364 34.1071L38.9578 21.6071C38.3403 18.7254 35.7936 16.6667 32.8465 16.6667H17.1535Z" fill="#003A04"/>
</svg>
