<svg width="50" height="50" viewBox="0 0 50 50" fill="none" xmlns="http://www.w3.org/2000/svg">
<path d="M8.33332 25C8.33332 15.7953 15.7952 8.33335 25 8.33335C34.2047 8.33335 41.6667 15.7953 41.6667 25C41.6667 29.3732 39.9832 33.3539 37.225 36.3287C37.1209 35.9841 36.9824 35.6457 36.8017 35.3227C36.1892 34.2276 35.4166 33.215 34.4998 32.3195C33.5798 31.4209 32.5418 30.6668 31.4222 30.071C33.1273 28.4388 34.1934 26.1576 34.1934 23.6111C34.1934 18.5792 30.0308 14.5834 25 14.5834C19.9692 14.5834 15.8066 18.5792 15.8066 23.6111C15.8066 26.1576 16.8726 28.4388 18.5778 30.071C17.4582 30.6668 16.4202 31.4209 15.5002 32.3195C14.5834 33.215 13.8108 34.2276 13.1983 35.3227C13.0176 35.6457 12.8791 35.9841 12.775 36.3287C10.0168 33.3539 8.33332 29.3732 8.33332 25Z" fill="#003A04" fill-opacity="0.34"/>
<path fill-rule="evenodd" clip-rule="evenodd" d="M25 8.33335C15.7952 8.33335 8.33332 15.7953 8.33332 25C8.33332 29.3732 10.0168 33.3539 12.775 36.3287C12.8791 35.9841 13.0176 35.6457 13.1983 35.3227C13.8108 34.2276 14.5834 33.215 15.5002 32.3195C16.4202 31.4209 17.4582 30.6668 18.5778 30.071C16.8726 28.4388 15.8066 26.1576 15.8066 23.6111C15.8066 18.5792 19.9692 14.5834 25 14.5834C30.0308 14.5834 34.1934 18.5792 34.1934 23.6111C34.1934 26.1576 33.1273 28.4388 31.4222 30.071C32.5418 30.6668 33.5798 31.4209 34.4998 32.3195C35.4166 33.215 36.1892 34.2276 36.8017 35.3227C36.9824 35.6457 37.1209 35.9841 37.225 36.3287C39.9832 33.3539 41.6667 29.3732 41.6667 25C41.6667 15.7953 34.2047 8.33335 25 8.33335ZM33.2107 39.5077C33.2915 39.0915 33.3321 38.7009 33.3333 38.3548C33.3353 37.783 33.2305 37.4734 33.1652 37.3566C32.7474 36.6096 32.2187 35.916 31.5884 35.3003C29.8493 33.6017 27.4802 32.6389 25 32.6389C22.5197 32.6389 20.1507 33.6017 18.4115 35.3003C17.7812 35.916 17.2526 36.6095 16.8348 37.3566C16.7694 37.4734 16.6647 37.7829 16.6667 38.3548C16.6679 38.7009 16.7084 39.0915 16.7893 39.5077C19.2115 40.8819 22.0114 41.6667 25 41.6667C27.9885 41.6667 30.7885 40.8819 33.2107 39.5077ZM25 28.4722C27.8228 28.4722 30.0267 26.2498 30.0267 23.6111C30.0267 20.9724 27.8228 18.75 25 18.75C22.1772 18.75 19.9732 20.9724 19.9732 23.6111C19.9732 26.2498 22.1772 28.4722 25 28.4722ZM4.16666 25C4.16666 13.4941 13.4941 4.16669 25 4.16669C36.5059 4.16669 45.8333 13.4941 45.8333 25C45.8333 32.411 41.9622 38.9163 36.1416 42.6066C32.9181 44.6503 29.094 45.8334 25 45.8334C20.9059 45.8334 17.0818 44.6503 13.8584 42.6066C8.03777 38.9163 4.16666 32.411 4.16666 25Z" fill="#003A04"/>
</svg>
