<svg width="50" height="50" viewBox="0 0 50 50" fill="none" xmlns="http://www.w3.org/2000/svg">
<path fill-rule="evenodd" clip-rule="evenodd" d="M8.33334 18.75C8.33334 9.54526 15.7953 2.08334 25 2.08334C34.2048 2.08334 41.6667 9.54526 41.6667 18.75V31.25C41.6667 40.4548 34.2048 47.9167 25 47.9167C15.7953 47.9167 8.33334 40.4548 8.33334 31.25V18.75ZM25 6.25001C18.0965 6.25001 12.5 11.8465 12.5 18.75V31.25C12.5 38.1536 18.0965 43.75 25 43.75C31.9036 43.75 37.5 38.1536 37.5 31.25V18.75C37.5 11.8465 31.9036 6.25001 25 6.25001ZM25 10.4167C26.1506 10.4167 27.0833 11.3494 27.0833 12.5V20.8333C27.0833 21.9839 26.1506 22.9167 25 22.9167C23.8494 22.9167 22.9167 21.9839 22.9167 20.8333V12.5C22.9167 11.3494 23.8494 10.4167 25 10.4167Z" fill="url(#paint0_linear_140_545)"/>
<defs>
<linearGradient id="paint0_linear_140_545" x1="8.33334" y1="25" x2="41.6667" y2="25" gradientUnits="userSpaceOnUse">
<stop stop-color="#DB2700"/>
<stop offset="1" stop-color="#DBB800"/>
</linearGradient>
</defs>
</svg>
