<svg width="50" height="50" viewBox="0 0 50 50" fill="none" xmlns="http://www.w3.org/2000/svg">
<path opacity="0.2" fill-rule="evenodd" clip-rule="evenodd" d="M21.2732 6.7131C23.6193 5.54007 26.3807 5.54007 28.7268 6.7131L44.6817 14.6906C45.3875 15.0435 45.8334 15.7648 45.8334 16.5539C45.8334 17.3431 45.3875 18.0644 44.6817 18.4173L28.7268 26.3948C26.3807 27.5678 23.6193 27.5678 21.2732 26.3948L5.31833 18.4173C4.61253 18.0644 4.16669 17.3431 4.16669 16.5539C4.16669 15.7648 4.61253 15.0435 5.31833 14.6906L21.2732 6.7131Z" fill="#DBB800"/>
<path fill-rule="evenodd" clip-rule="evenodd" d="M26.8634 10.4297C25.6904 9.84317 24.3097 9.84317 23.1366 10.4297L10.9085 16.5438L23.1366 22.6578C24.3097 23.2443 25.6904 23.2443 26.8634 22.6578L39.0915 16.5438L26.8634 10.4297L27.7951 8.5663L26.8634 10.4297ZM21.2732 6.70291C23.6193 5.52988 26.3807 5.52988 28.7268 6.70291L44.6817 14.6804C45.3875 15.0333 45.8334 15.7546 45.8334 16.5438C45.8334 17.3329 45.3875 18.0542 44.6817 18.4071L28.7268 26.3846C26.3807 27.5576 23.6193 27.5576 21.2732 26.3846L5.31833 18.4071C4.61253 18.0542 4.16669 17.3329 4.16669 16.5438C4.16669 15.7546 4.61253 15.0333 5.31833 14.6804L21.2732 6.70291ZM10.2847 24.5651C10.4802 24.0421 10.4661 23.4425 10.1967 22.9037C9.68218 21.8746 8.43078 21.4574 7.40166 21.972L5.31833 23.0136C4.61253 23.3665 4.16669 24.0879 4.16669 24.877C4.16669 25.6661 4.61253 26.3875 5.31833 26.7404L22.2049 35.1837C23.9645 36.0635 26.0356 36.0635 27.7951 35.1837L44.6817 26.7404C45.3875 26.3875 45.8334 25.6661 45.8334 24.877C45.8334 24.0879 45.3875 23.3665 44.6817 23.0136L42.5984 21.972C41.5693 21.4574 40.3179 21.8746 39.8033 22.9037C39.5339 23.4425 39.5199 24.0421 39.7153 24.5651L25.9317 31.457C25.3452 31.7502 24.6548 31.7502 24.0683 31.457L10.2847 24.5651ZM10.2847 32.8985C10.4802 32.3755 10.4661 31.7758 10.1967 31.237C9.68218 30.2079 8.43078 29.7908 7.40166 30.3053L5.31833 31.347C4.61253 31.6999 4.16669 32.4213 4.16669 33.2104C4.16669 33.9995 4.61253 34.7209 5.31833 35.0738L22.2049 43.5171C23.9645 44.3968 26.0356 44.3968 27.7951 43.5171L44.6817 35.0738C45.3875 34.7209 45.8334 33.9995 45.8334 33.2104C45.8334 32.4213 45.3875 31.6999 44.6817 31.347L42.5984 30.3053C41.5693 29.7908 40.3179 30.2079 39.8033 31.237C39.5339 31.7758 39.5199 32.3755 39.7153 32.8985L25.9317 39.7903C25.3452 40.0835 24.6548 40.0835 24.0683 39.7903L10.2847 32.8985Z" fill="#DBB800"/>
</svg>
