<svg width="220" height="86" viewBox="0 0 220 86" fill="none" xmlns="http://www.w3.org/2000/svg">
<g clip-path="url(#clip0_78_1247)">
<rect width="220" height="86" rx="10" fill="#002803"/>
<path d="M36.6133 33.6836H40.3281L46.9844 40.3633L53.6406 33.6836H57.3555V52H53.6406V38.8281L46.9844 45.2383L40.3281 38.8281V52H36.6133V33.6836ZM63.7891 53.7344C64.1484 53.9688 64.5391 54.1758 64.9609 54.3555C65.3828 54.5352 65.8203 54.6836 66.2734 54.8008C66.7344 54.918 67.2031 55.0039 67.6797 55.0586C68.1562 55.1211 68.6289 55.1523 69.0977 55.1523C70.6914 55.1523 71.918 54.8086 72.7773 54.1211C73.6445 53.4414 74.0781 52.418 74.0781 51.0508V50.582C73.7734 50.793 73.4297 50.9883 73.0469 51.168C72.6719 51.3398 72.2656 51.4883 71.8281 51.6133C71.3984 51.7383 70.9414 51.8359 70.457 51.9062C69.9805 51.9688 69.4961 52 69.0039 52C67.9492 52 67.0039 51.8477 66.168 51.543C65.3398 51.2305 64.6367 50.7773 64.0586 50.1836C63.4883 49.582 63.0508 48.8438 62.7461 47.9688C62.4414 47.0938 62.2891 46.0938 62.2891 44.9688V38.1719H65.7461V44.0078C65.7461 45.6797 66.0625 46.9141 66.6953 47.7109C67.3359 48.5 68.3438 48.8945 69.7188 48.8945C70.6875 48.8945 71.543 48.7266 72.2852 48.3906C73.0352 48.0469 73.6328 47.6094 74.0781 47.0781V38.1719H77.5469V50.418C77.5469 51.7383 77.3594 52.8828 76.9844 53.8516C76.6094 54.8281 76.0625 55.6367 75.3438 56.2773C74.6328 56.918 73.7578 57.3945 72.7188 57.707C71.6797 58.0273 70.5 58.1875 69.1797 58.1875C67.8906 58.1875 66.6875 58.0508 65.5703 57.7773C64.4531 57.5039 63.4297 57.1328 62.5 56.6641L63.7891 53.7344ZM82.4688 33.6836H92.125C93.5312 33.6836 94.75 33.8359 95.7812 34.1406C96.8125 34.4453 97.668 34.8867 98.3477 35.4648C99.0273 36.0352 99.5312 36.7344 99.8594 37.5625C100.195 38.3906 100.363 39.3242 100.363 40.3633C100.363 41.3398 100.199 42.2422 99.8711 43.0703C99.543 43.8984 99.0391 44.6172 98.3594 45.2266C97.6875 45.8281 96.8359 46.3008 95.8047 46.6445C94.7734 46.9805 93.5547 47.1484 92.1484 47.1484L86.1836 47.1367V52H82.4688V33.6836ZM92.2188 43.9258C92.9219 43.9258 93.5352 43.8438 94.0586 43.6797C94.5898 43.5078 95.0312 43.2695 95.3828 42.9648C95.7422 42.6523 96.0078 42.2773 96.1797 41.8398C96.3594 41.3945 96.4492 40.9023 96.4492 40.3633C96.4492 39.2773 96.0938 38.4336 95.3828 37.832C94.6797 37.2227 93.625 36.918 92.2188 36.918H86.1836V43.9258H92.2188ZM103.34 47.6406C103.34 46.9766 103.484 46.3711 103.773 45.8242C104.062 45.2773 104.496 44.8086 105.074 44.418C105.652 44.0195 106.371 43.7148 107.23 43.5039C108.098 43.2852 109.105 43.1758 110.254 43.1758C111.105 43.1758 112 43.2383 112.938 43.3633C113.883 43.4883 114.855 43.6797 115.855 43.9375C115.816 43.5 115.684 43.0977 115.457 42.7305C115.23 42.3555 114.914 42.0352 114.508 41.7695C114.109 41.4961 113.625 41.2852 113.055 41.1367C112.492 40.9883 111.852 40.9141 111.133 40.9141C110.742 40.9141 110.312 40.9375 109.844 40.9844C109.375 41.0312 108.891 41.1016 108.391 41.1953C107.891 41.2891 107.395 41.4062 106.902 41.5469C106.418 41.6875 105.965 41.8555 105.543 42.0508L104.488 39.2031C105.012 39.0156 105.57 38.8438 106.164 38.6875C106.766 38.5312 107.379 38.3984 108.004 38.2891C108.629 38.1719 109.254 38.082 109.879 38.0195C110.504 37.957 111.109 37.9258 111.695 37.9258C114.281 37.9258 116.203 38.5859 117.461 39.9062C118.719 41.2266 119.348 43.25 119.348 45.9766V52H115.879V50.6992C115.52 50.9102 115.125 51.1094 114.695 51.2969C114.273 51.4844 113.812 51.6484 113.312 51.7891C112.812 51.9297 112.273 52.0391 111.695 52.1172C111.125 52.2031 110.52 52.2461 109.879 52.2461C108.801 52.2461 107.852 52.1289 107.031 51.8945C106.219 51.6602 105.539 51.3359 104.992 50.9219C104.445 50.5078 104.031 50.0234 103.75 49.4688C103.477 48.9062 103.34 48.2969 103.34 47.6406ZM106.996 47.5234C106.996 47.75 107.055 47.9688 107.172 48.1797C107.289 48.3828 107.477 48.5664 107.734 48.7305C107.992 48.8867 108.32 49.0156 108.719 49.1172C109.125 49.2109 109.613 49.2578 110.184 49.2578C110.793 49.2578 111.383 49.2031 111.953 49.0938C112.523 48.9844 113.055 48.8398 113.547 48.6602C114.039 48.4805 114.484 48.2734 114.883 48.0391C115.281 47.8047 115.613 47.5625 115.879 47.3125V46.7031C115.348 46.5547 114.82 46.4297 114.297 46.3281C113.781 46.2266 113.285 46.1484 112.809 46.0938C112.34 46.0312 111.895 45.9883 111.473 45.9648C111.059 45.9414 110.695 45.9297 110.383 45.9297C109.734 45.9297 109.195 45.9727 108.766 46.0586C108.336 46.1445 107.988 46.2617 107.723 46.4102C107.457 46.5508 107.27 46.7188 107.16 46.9141C107.051 47.1094 106.996 47.3125 106.996 47.5234ZM124.492 47.7578C125.43 48.3203 126.461 48.7344 127.586 49C128.711 49.2656 129.863 49.3984 131.043 49.3984C131.84 49.3984 132.504 49.3438 133.035 49.2344C133.566 49.125 133.992 48.9844 134.312 48.8125C134.633 48.6406 134.859 48.4453 134.992 48.2266C135.125 48.0078 135.191 47.7852 135.191 47.5586C135.191 47.2305 135.047 46.9492 134.758 46.7148C134.477 46.4805 134.008 46.3633 133.352 46.3633C133.047 46.3633 132.719 46.3828 132.367 46.4219C132.016 46.4609 131.645 46.5039 131.254 46.5508C130.871 46.5898 130.469 46.6289 130.047 46.668C129.633 46.707 129.211 46.7266 128.781 46.7266C127.844 46.7266 127.043 46.625 126.379 46.4219C125.723 46.2188 125.188 45.9414 124.773 45.5898C124.359 45.2383 124.059 44.8242 123.871 44.3477C123.684 43.8633 123.59 43.3438 123.59 42.7891C123.59 42.0859 123.754 41.4375 124.082 40.8438C124.41 40.25 124.879 39.7383 125.488 39.3086C126.098 38.8711 126.832 38.5312 127.691 38.2891C128.559 38.0469 129.523 37.9258 130.586 37.9258C131.141 37.9258 131.719 37.9609 132.32 38.0312C132.93 38.0938 133.527 38.1797 134.113 38.2891C134.699 38.3984 135.262 38.5273 135.801 38.6758C136.34 38.8164 136.816 38.9688 137.23 39.1328L136.141 41.8281C135.258 41.5 134.375 41.2422 133.492 41.0547C132.617 40.8594 131.715 40.7617 130.785 40.7617C130.137 40.7617 129.586 40.8125 129.133 40.9141C128.688 41.0078 128.324 41.1367 128.043 41.3008C127.762 41.457 127.555 41.6406 127.422 41.8516C127.297 42.0547 127.234 42.2695 127.234 42.4961C127.234 42.6602 127.266 42.8086 127.328 42.9414C127.398 43.0742 127.508 43.1914 127.656 43.293C127.812 43.3867 128.012 43.4609 128.254 43.5156C128.504 43.5625 128.809 43.5859 129.168 43.5859C129.496 43.5859 129.844 43.5664 130.211 43.5273C130.578 43.4883 130.961 43.4492 131.359 43.4102C131.758 43.3633 132.168 43.3203 132.59 43.2812C133.02 43.2422 133.457 43.2227 133.902 43.2227C134.73 43.2227 135.453 43.3203 136.07 43.5156C136.695 43.7109 137.211 43.9844 137.617 44.3359C138.023 44.6875 138.328 45.1016 138.531 45.5781C138.734 46.0547 138.836 46.5742 138.836 47.1367C138.836 47.8633 138.668 48.5391 138.332 49.1641C137.996 49.7891 137.496 50.332 136.832 50.793C136.168 51.2461 135.34 51.6016 134.348 51.8594C133.363 52.1172 132.223 52.2461 130.926 52.2461C130.129 52.2461 129.359 52.1953 128.617 52.0938C127.875 52 127.168 51.8711 126.496 51.707C125.824 51.5352 125.191 51.3359 124.598 51.1094C124.012 50.8828 123.477 50.6406 122.992 50.3828L124.492 47.7578ZM144.051 40.7734H140.711V38.1719H144.051V33.8711H147.52V38.1719H150.859V40.7734H147.52V52H144.051V40.7734ZM153.941 38.1719H157.41V40.1641C158.176 39.5938 158.984 39.1016 159.836 38.6875C160.688 38.2734 161.535 37.957 162.379 37.7383L163.398 40.9141C162.062 41.0469 160.887 41.3477 159.871 41.8164C158.863 42.2773 158.043 42.9297 157.41 43.7734V52H153.941V38.1719ZM167.641 53.7344C168 53.9688 168.391 54.1758 168.812 54.3555C169.234 54.5352 169.672 54.6836 170.125 54.8008C170.586 54.918 171.055 55.0039 171.531 55.0586C172.008 55.1211 172.48 55.1523 172.949 55.1523C174.543 55.1523 175.77 54.8086 176.629 54.1211C177.496 53.4414 177.93 52.418 177.93 51.0508V50.582C177.625 50.793 177.281 50.9883 176.898 51.168C176.523 51.3398 176.117 51.4883 175.68 51.6133C175.25 51.7383 174.793 51.8359 174.309 51.9062C173.832 51.9688 173.348 52 172.855 52C171.801 52 170.855 51.8477 170.02 51.543C169.191 51.2305 168.488 50.7773 167.91 50.1836C167.34 49.582 166.902 48.8438 166.598 47.9688C166.293 47.0938 166.141 46.0938 166.141 44.9688V38.1719H169.598V44.0078C169.598 45.6797 169.914 46.9141 170.547 47.7109C171.188 48.5 172.195 48.8945 173.57 48.8945C174.539 48.8945 175.395 48.7266 176.137 48.3906C176.887 48.0469 177.484 47.6094 177.93 47.0781V38.1719H181.398V50.418C181.398 51.7383 181.211 52.8828 180.836 53.8516C180.461 54.8281 179.914 55.6367 179.195 56.2773C178.484 56.918 177.609 57.3945 176.57 57.707C175.531 58.0273 174.352 58.1875 173.031 58.1875C171.742 58.1875 170.539 58.0508 169.422 57.7773C168.305 57.5039 167.281 57.1328 166.352 56.6641L167.641 53.7344Z" fill="white"/>
</g>
<defs>
<clipPath id="clip0_78_1247">
<rect width="220" height="86" fill="white"/>
</clipPath>
</defs>
</svg>
